<mxfile host="app.diagrams.net" modified="2023-02-20T05:45:53.901Z" agent="5.0 (Windows NT 10.0; Win64; x64) AppleWebKit/537.36 (KHTML, like Gecko) Chrome/110.0.0.0 Safari/537.36" etag="iQSaTcCWK6jXTTV5gv4w" version="20.7.4" type="github">
  <diagram name="Page-1" id="b5b7bab2-c9e2-2cf4-8b2a-24fd1a2a6d21">
    <mxGraphModel dx="1434" dy="764" grid="1" gridSize="10" guides="1" tooltips="1" connect="1" arrows="1" fold="1" page="1" pageScale="1" pageWidth="827" pageHeight="1169" background="none" math="0" shadow="0">
      <root>
        <mxCell id="0" />
        <mxCell id="1" parent="0" />
        <mxCell id="EiW0KNOhNjY4eqsTkoEY-4" value="Server&lt;br&gt;" style="verticalAlign=top;align=left;spacingTop=8;spacingLeft=2;spacingRight=12;shape=cube;size=10;direction=south;fontStyle=4;html=1;" vertex="1" parent="1">
          <mxGeometry x="180" y="630" width="500" height="280" as="geometry" />
        </mxCell>
        <mxCell id="EiW0KNOhNjY4eqsTkoEY-1" value="Lobby.js" style="shape=module;align=left;spacingLeft=20;align=center;verticalAlign=top;" vertex="1" parent="1">
          <mxGeometry x="240" y="695" width="100" height="50" as="geometry" />
        </mxCell>
        <mxCell id="EiW0KNOhNjY4eqsTkoEY-3" value="RoomModule.js" style="shape=module;align=left;spacingLeft=20;align=center;verticalAlign=top;" vertex="1" parent="1">
          <mxGeometry x="540" y="695" width="100" height="50" as="geometry" />
        </mxCell>
        <mxCell id="EiW0KNOhNjY4eqsTkoEY-5" value="Room.js&#xa;" style="shape=module;align=left;spacingLeft=20;align=center;verticalAlign=top;" vertex="1" parent="1">
          <mxGeometry x="390" y="695" width="100" height="50" as="geometry" />
        </mxCell>
        <mxCell id="EiW0KNOhNjY4eqsTkoEY-6" value="Server&lt;br&gt;" style="verticalAlign=top;align=left;spacingTop=8;spacingLeft=2;spacingRight=12;shape=cube;size=10;direction=south;fontStyle=4;html=1;" vertex="1" parent="1">
          <mxGeometry x="190" y="150" width="500" height="280" as="geometry" />
        </mxCell>
      </root>
    </mxGraphModel>
  </diagram>
</mxfile>
